# xmcd
#
# Track frame offsets:
#	150
#	14570
#	34421
#	60305
#	80363
#	104726
#	123230
#	143508
#	162240
#	182700
#
# Disc length: 2689 seconds
#
# Revision: 1
# Processed by: cddbd v1.5.2PL0 Copyright (c) Steve Scherf et al.
# Submitted via: audiograbber 1.83.01
#
DISCID=800a7f0a
DTITLE=Gorilla Rodeo - King of the Cake Fight
DYEAR=2015
DGENRE=Country
TTITLE0=How to be Happy
TTITLE1=Come out to Play
TTITLE2=Come on
TTITLE3=The Ballad of Principle Pete
TTITLE4=Electric Candlelight
TTITLE5=Easy Street
TTITLE6=King of the Cake Fight
TTITLE7=Burning Man
TTITLE8=Such a Rebel
TTITLE9=Time and Again
EXTD=
EXTT0=
EXTT1=
EXTT2=
EXTT3=
EXTT4=
EXTT5=
EXTT6=
EXTT7=
EXTT8=
EXTT9=
PLAYORDER=
